<svg width="169" height="169" viewBox="702.456 854.077 169 169" stroke-linecap="round" stroke-linejoin="round" data-color-mode="light" class="tl-container tl-theme__force-sRGB tl-theme__light" xmlns="http://www.w3.org/2000/svg" style="background-color: rgb(249, 250, 251);">
  <path d="M807.725 895.58l1.53.995q1.528.997 4.34 3.226 2.811 2.23 4.227 3.675 1.416 1.445 2.637 2.89 1.22 1.444 2.423 3.175 1.202 1.732 2.3 3.78 1.098 2.047 2.003 4.21.904 2.164 1.675 4.491.772 2.327 1.473 4.542.701 2.215 1.313 4.325.612 2.11 1.158 4.116.546 2.006.974 4.049.428 2.042.776 3.87.348 1.827.645 3.708.298 1.88.613 5.152.315 3.27.354 6.186.04 2.915-.246 5.513-.286 2.597-.822 4.953-.535 2.355-1.166 4.264-.63 1.909-1.52 3.627-.891 1.718-2.6 3.753-1.708 2.035-4.06 3.905-2.351 1.869-5.197 3.353-2.845 1.483-5.587 2.658-2.743 1.175-5.532 2.059-2.79.883-5.868 1.43-3.078.546-6.627.547-3.548 0-7.04-.427t-6.841-1.308q-3.35-.881-6.59-1.914-3.24-1.033-5.018-1.75-1.779-.72-4.84-1.884-3.063-1.165-5.946-2.722-2.883-1.557-5.277-3.156-2.393-1.6-4.594-3.453-2.2-1.854-4.361-4.21-2.162-2.355-4.131-4.692-1.97-2.337-3.673-4.548-1.703-2.212-3.028-4.423-1.325-2.21-2.359-4.384-1.034-2.174-1.856-4.363-.822-2.19-1.206-4.917-.384-2.728-.355-5.712.03-2.984.71-6.495.68-3.51 1.246-5.343.566-1.832 2.01-5.333 1.444-3.502 2.305-5.19.861-1.69 1.906-3.424t1.962-3.386q.918-1.653 1.883-3.28.965-1.628 2.025-3.267 1.061-1.64 3.366-4.515 2.306-2.875 4.868-5.245 2.561-2.37 4.218-3.35 1.656-.98 4.304-2.502 2.648-1.52 5.651-2.6 3.004-1.078 5.624-1.783 2.62-.704 5.61-1.036 2.99-.332 6.058-.295 3.069.037 6.126.395 3.057.358 5.905 1.072 2.848.714 5.787 1.931 2.94 1.217 4.656 2.114 1.718.897 4.908 2.76 3.19 1.863 6.07 4.048 2.88 2.185 5.17 4.232 2.288 2.047 4.237 4.073 1.95 2.026 3.651 3.947 1.702 1.92 3.473 4.417 1.772 2.497 3.438 5.897 1.666 3.4 2.984 6.798 1.319 3.4 2.155 6.561.836 3.162 1.35 5.805.514 2.643.59 5.388.076 2.745-.225 5.352t-1.04 5.29q-.739 2.683-1.788 5.087-1.05 2.403-2.21 4.56-1.16 2.156-2.352 3.84-1.191 1.683-2.461 3.177-1.27 1.494-2.686 2.786-1.416 1.293-3.65 2.624-2.234 1.332-4.299 2.25-2.064.917-4.301 1.763-2.237.846-4.44 1.495-2.205.649-4.187 1.165-1.981.517-4.383 1.03-2.401.511-4.802.715-2.4.204-4.936.112-2.536-.092-5-.33-2.466-.239-4.725-.506-2.26-.267-4.253-.76-1.993-.494-4.09-1.229-2.099-.734-4.31-1.701-2.212-.967-4.415-2.29-2.203-1.325-4.362-2.702-2.159-1.377-4.195-3.03-2.036-1.655-3.855-3.694-1.819-2.04-3.267-3.866-1.447-1.827-2.613-3.867t-2.017-3.82q-.85-1.782-1.689-3.558-.838-1.776-1.483-4.012-.645-2.237-1.138-4.796-.492-2.559-.786-5.299-.294-2.74-.34-5.611-.048-2.872.106-5.331.154-2.46.532-4.668t1.13-4.71q.752-2.5 1.953-5.352 1.202-2.852 3.048-6.161 1.846-3.31 2.973-4.894 1.127-1.583 2.483-3.074 1.356-1.49 3.976-3.898 2.619-2.408 5.153-4.23 2.535-1.823 4.93-3.142 2.395-1.319 5.207-2.09 2.812-.771 5.388-1.175t5.466-.337q2.891.066 5.738.634 2.846.568 5.487 1.513 2.64.945 5.197 2.168 2.557 1.223 5.113 2.778 2.555 1.554 4.923 3.005 2.367 1.452 4.397 2.86 2.03 1.408 3.812 2.896 1.783 1.489 3.815 3.468 2.032 1.979 3.714 4.454l1.682 2.475a4.553 4.553 0 0 1-7.556 5.081l-1.774-2.452q-1.773-2.452-3.61-4.297-1.836-1.845-3.448-3.11-1.613-1.267-3.513-2.56-1.9-1.292-4.44-2.741-2.541-1.449-4.697-2.657t-4.25-2.1q-2.094-.892-4.177-1.493-2.084-.602-4.268-.853-2.185-.252-4.21-.228-2.025.023-4.134.369-2.109.345-3.863.967t-3.79 1.875q-2.035 1.252-4.228 2.992-2.193 1.74-4.252 3.977-2.06 2.237-3.736 5.006-1.677 2.77-2.875 5.596-1.198 2.827-1.988 5.06-.79 2.231-1.393 4.877-.602 2.647-.736 4.826-.134 2.178-.098 4.266.036 2.087.34 4.564.304 2.476.767 4.723t1.133 4.498q.67 2.25 1.827 4.7 1.156 2.45 2.498 4.73 1.34 2.28 2.774 3.95 1.432 1.669 2.875 3.066 1.442 1.397 3.105 2.637t3.79 2.487q2.126 1.247 3.783 2.16 1.657.911 4.309 1.845 2.65.934 4.994 1.497 2.344.562 4.61.786 2.266.224 4.404.374 2.139.15 4.092.072 1.952-.078 4.276-.394 2.323-.316 4.779-.923 2.456-.608 4.49-1.203 2.034-.596 4.103-1.396 2.068-.8 4.397-1.789 2.328-.989 4.079-2.382 1.75-1.393 3.243-3.114 1.492-1.72 2.854-3.908 1.362-2.188 2.29-4.183.927-1.995 1.53-3.908.603-1.913.916-4.118.313-2.205.339-4.193.025-1.988-.34-4.242-.364-2.254-1.034-4.942-.671-2.69-1.94-5.775-1.27-3.085-2.619-5.762-1.349-2.676-2.971-4.96-1.623-2.285-3.196-4.144-1.574-1.859-3.204-3.632-1.63-1.774-3.58-3.583-1.952-1.81-4.465-3.685-2.512-1.875-5.406-3.472-2.895-1.596-5.705-2.859-2.81-1.262-5.057-2.117-2.247-.856-4.65-1.369-2.403-.513-5.085-.665-2.682-.153-5.161-.047-2.48.105-4.795.493-2.316.387-4.689 1.02-2.373.632-4.637 1.628-2.265.996-4.777 2.395-2.512 1.4-4.676 3.347t-4.05 4.242q-1.887 2.295-3.708 5.322-1.82 3.027-3.608 6.366-1.79 3.338-3.167 6.374-1.377 3.036-2.31 6.051-.932 3.015-1.425 5.891-.494 2.876-.507 5.26-.014 2.382.397 4.984.411 2.602 1.535 5.29 1.123 2.688 2.148 4.545 1.025 1.857 2.618 3.97 1.593 2.112 3.267 4.134 1.674 2.022 3.586 4.125 1.911 2.103 3.854 3.793 1.942 1.69 3.905 3.07 1.963 1.38 4.18 2.66 2.218 1.28 5.333 2.447t6.268 2.236q3.154 1.07 6.106 1.945 2.953.875 5.797 1.379 2.845.504 5.784.694 2.94.19 5.586-.045 2.647-.236 5.039-.848t4.781-1.541q2.39-.93 4.796-2.053 2.406-1.122 4.365-2.359 1.96-1.237 3.389-2.543 1.429-1.307 2.61-2.967 1.18-1.66 2.077-3.916.896-2.255 1.32-4.248.424-1.992.704-4.276.28-2.284.232-5.09-.047-2.804-.4-6.103-.352-3.298-.993-6.87-.64-3.57-1.161-5.504-.521-1.934-1.11-3.907-.59-1.974-1.349-4.103-.759-2.13-1.541-4.177-.783-2.048-1.601-3.85-.819-1.803-2.79-4.878-1.973-3.075-4.15-5.455-2.179-2.38-4.557-4.303-2.379-1.923-3.923-2.891l-1.545-.97a4.058 4.058 0 0 1 4.372-6.837z" fill="#1d1d1d"/>
</svg>