<?xml version="1.0" encoding="UTF-8" standalone="no"?>
<svg
   direction="ltr"
   width="169"
   height="169"
   viewBox="702.45577 854.07662 169 169"
   stroke-linecap="round"
   stroke-linejoin="round"
   data-color-mode="light"
   class="tl-container tl-theme__force-sRGB tl-theme__light"
   version="1.1"
   id="svg10"
   sodipodi:docname="squiggly_circle_white_bg_169_square.svg"
   inkscape:version="1.2.2 (b0a8486541, 2022-12-01)"
   xmlns:inkscape="http://www.inkscape.org/namespaces/inkscape"
   xmlns:sodipodi="http://sodipodi.sourceforge.net/DTD/sodipodi-0.dtd"
   xmlns="http://www.w3.org/2000/svg"
   xmlns:svg="http://www.w3.org/2000/svg">
  <sodipodi:namedview
     id="namedview12"
     pagecolor="#ffffff"
     bordercolor="#000000"
     borderopacity="0.25"
     inkscape:showpageshadow="2"
     inkscape:pageopacity="0.0"
     inkscape:pagecheckerboard="0"
     inkscape:deskcolor="#d1d1d1"
     showgrid="false"
     inkscape:zoom="1.0897433"
     inkscape:cx="-15.600004"
     inkscape:cy="-62.858838"
     inkscape:window-width="2560"
     inkscape:window-height="1440"
     inkscape:window-x="0"
     inkscape:window-y="0"
     inkscape:window-maximized="1"
     inkscape:current-layer="svg10" />
  <defs
     id="defs2" />
  <g
     transform="translate(805.53927,898.99786)"
     opacity="1"
     id="g8">
    <g
       id="g6">
      <path
         d="m 2.1861,-3.4186 q 0,0 1.5287,0.9962 1.5287,0.9962 4.3403,3.2258 2.8116,2.2296 4.2275,3.6748 1.4159,1.4452 2.6368,2.8896 1.2209,1.4444 2.4229,3.1758 1.202,1.7314 2.3002,3.779 1.0982,2.0476 2.0028,4.2113 0.9046,2.1637 1.6759,4.4906 0.7713,2.3269 1.4726,4.5417 0.7013,2.2148 1.3129,4.3248 0.6116,2.11 1.1579,4.1162 0.5463,2.0062 0.974,4.0486 0.4277,2.0424 0.7759,3.8701 0.3482,1.8277 0.6457,3.7084 0.2975,1.8807 0.6126,5.1516 0.3151,3.2709 0.3543,6.1863 0.0392,2.9154 -0.2465,5.5129 -0.2857,2.5975 -0.8214,4.9528 -0.5357,2.3553 -1.166,4.2642 -0.6303,1.9089 -1.5209,3.627 -0.8906,1.7181 -2.5993,3.7532 -1.7087,2.0351 -4.06,3.9044 -2.3513,1.8693 -5.1968,3.3531 -2.8455,1.4838 -5.5878,2.6584 -2.7423,1.1746 -5.5317,2.0585 -2.7894,0.8839 -5.8678,1.4304 -3.0784,0.5465 -6.627,0.547 -3.5486,5e-4 -7.0405,-0.4266 -3.4919,-0.4271 -6.8409,-1.3084 -3.349,-0.8813 -6.5891,-1.9139 -3.2401,-1.0326 -5.0187,-1.7509 -1.7786,-0.7183 -4.8407,-1.8831 -3.0621,-1.1648 -5.9452,-2.722 -2.8831,-1.5572 -5.2768,-3.1564 -2.3937,-1.5992 -4.5938,-3.4528 -2.2001,-1.8536 -4.3616,-4.2093 -2.1615,-2.3557 -4.1312,-4.6925 -1.9697,-2.3368 -3.6729,-4.5484 -1.7032,-2.2116 -3.0279,-4.4225 -1.3247,-2.2109 -2.3587,-4.3843 -1.034,-2.1734 -1.8561,-4.3628 -0.8221,-2.1894 -1.2062,-4.9174 -0.3841,-2.728 -0.3548,-5.7117 0.0293,-2.9837 0.7092,-6.4945 0.6799,-3.5108 1.2463,-5.343 0.5664,-1.8322 2.0104,-5.3338 1.444,-3.5016 2.3052,-5.1902 0.8612,-1.6886 1.906,-3.4232 1.0448,-1.7346 1.9622,-3.3867 0.9174,-1.6521 1.8824,-3.2798 0.965,-1.6277 2.0256,-3.2669 1.0606,-1.6392 3.366,-4.5144 2.3054,-2.8752 4.8672,-5.2458 2.5618,-2.3706 4.218,-3.3506 1.6562,-0.98 4.3043,-2.5009 2.6481,-1.5209 5.6515,-2.5996 3.0034,-1.0787 5.6237,-1.7833 2.6203,-0.7046 5.6099,-1.0366 2.9896,-0.332 6.0583,-0.2946 3.0687,0.0374 6.1257,0.395 3.057,0.3576 5.9048,1.0719 2.8478,0.7143 5.7871,1.9312 2.9393,1.2169 4.6566,2.1141 1.7173,0.8972 4.9078,2.7601 3.1905,1.8629 6.0703,4.048 2.8798,2.1851 5.1685,4.2319 2.2887,2.0468 4.2382,4.0729 1.9495,2.0261 3.6509,3.9464 1.7014,1.9203 3.4732,4.4173 1.7718,2.497 3.4378,5.8968 1.666,3.3998 2.9842,6.7986 1.3182,3.3988 2.1544,6.5608 0.8362,3.162 1.3504,5.8049 0.5142,2.6429 0.5901,5.3879 0.0759,2.745 -0.2254,5.3522 -0.3013,2.6072 -1.04,5.2903 -0.7387,2.6831 -1.7882,5.0863 -1.0495,2.4032 -2.2099,4.5598 -1.1604,2.1566 -2.3516,3.84 -1.1912,1.6834 -2.4615,3.1775 -1.2703,1.4941 -2.6858,2.7864 -1.4155,1.2923 -3.6495,2.6238 -2.234,1.3315 -4.2989,2.2494 -2.0649,0.9179 -4.3015,1.7637 -2.2366,0.8458 -4.4407,1.4947 -2.2041,0.6489 -4.1858,1.1653 -1.9817,0.5164 -4.3831,1.0288 -2.4014,0.5124 -4.8023,0.7162 -2.4009,0.2038 -4.9364,0.1118 -2.5355,-0.092 -5.0005,-0.3304 -2.465,-0.2384 -4.7244,-0.5053 -2.2594,-0.2669 -4.2524,-0.7605 -1.993,-0.4936 -4.0911,-1.2284 -2.0981,-0.7348 -4.3096,-1.7016 -2.2115,-0.9668 -4.4145,-2.2907 -2.203,-1.3239 -4.3619,-2.7008 -2.1589,-1.3769 -4.1951,-3.0311 -2.0362,-1.6542 -3.8551,-3.6933 -1.8189,-2.0391 -3.2666,-3.8661 -1.4477,-1.827 -2.6138,-3.8669 -1.1661,-2.0399 -2.0167,-3.8208 -0.8506,-1.7809 -1.6888,-3.557 -0.8382,-1.7761 -1.4832,-4.0125 -0.645,-2.2364 -1.1376,-4.7953 -0.4926,-2.5589 -0.7864,-5.299 -0.2938,-2.7401 -0.3407,-5.6116 -0.0469,-2.8715 0.1067,-5.3309 0.1536,-2.4594 0.532,-4.6678 0.3784,-2.2084 1.13,-4.7093 0.7516,-2.5009 1.9533,-5.3528 1.2017,-2.8519 3.0476,-6.1614 1.8459,-3.3095 2.973,-4.8931 1.1271,-1.5836 2.4833,-3.074 1.3562,-1.4904 3.9755,-3.8986 2.6193,-2.4082 5.1536,-4.2307 2.5343,-1.8225 4.9295,-3.1411 2.3952,-1.3186 5.2071,-2.0899 2.8119,-0.7713 5.3878,-1.1751 2.5759,-0.4038 5.4668,-0.3373 2.8909,0.0665 5.7372,0.6342 2.8463,0.5677 5.4869,1.5128 2.6406,0.9451 5.1977,2.1681 2.5571,1.223 5.1126,2.7777 2.5555,1.5547 4.9227,3.0059 2.3672,1.4512 4.3973,2.8593 2.0301,1.4081 3.8125,2.8965 1.7824,1.4884 3.8143,3.4675 2.0319,1.9791 3.7146,4.4542 1.6827,2.4751 1.6822,2.4753 a 4.553,4.553 0 0 1 -7.5564,5.0812 q 0,0 -1.7737,-2.452 -1.7737,-2.452 -3.61,-4.2974 Q 9.6818,7.4158 8.0695,6.1502 6.4572,4.8846 4.5567,3.5917 2.6562,2.2988 0.1158,0.8501 q -2.5404,-1.4487 -4.6961,-2.657 -2.1557,-1.2083 -4.2496,-2.1002 -2.0939,-0.8919 -4.1775,-1.4931 -2.0836,-0.6012 -4.268,-0.8528 -2.1844,-0.2516 -4.2096,-0.228 -2.0252,0.0236 -4.1341,0.369 -2.1089,0.3454 -3.8631,0.9675 -1.7542,0.6221 -3.7894,1.8744 -2.0352,1.2523 -4.2282,2.9921 -2.193,1.7398 -4.2523,3.9769 -2.0593,2.2371 -3.7364,5.0063 -1.6771,2.7692 -2.8748,5.5962 -1.1977,2.827 -1.988,5.059 -0.7903,2.232 -1.3928,4.8782 -0.6025,2.6462 -0.7361,4.8251 -0.1336,2.1789 -0.0977,4.2661 0.0359,2.0872 0.3397,4.564 0.3038,2.4768 0.7668,4.7236 0.463,2.2468 1.1331,4.4976 0.6701,2.2508 1.8267,4.7009 1.1566,2.4501 2.4979,4.7294 1.3413,2.2793 2.7741,3.9489 1.4328,1.6696 2.8753,3.0669 1.4425,1.3973 3.1055,2.6368 1.663,1.2395 3.7895,2.487 2.1265,1.2475 3.7835,2.1596 1.657,0.9121 4.3082,1.8459 2.6512,0.9338 4.9947,1.4965 2.3435,0.5627 4.6096,0.7865 2.2661,0.2238 4.4044,0.374 2.1383,0.1502 4.0912,0.0722 1.9529,-0.078 4.276,-0.3943 2.3231,-0.3163 4.7794,-0.9236 2.4563,-0.6073 4.4901,-1.2027 2.0338,-0.5954 4.1025,-1.3956 2.0687,-0.8002 4.3973,-1.7892 2.3286,-0.989 4.0789,-2.3821 1.7503,-1.3931 3.243,-3.114 1.4927,-1.7209 2.8545,-3.9083 1.3618,-2.1874 2.2893,-4.1826 0.9275,-1.9952 1.5305,-3.9079 0.603,-1.9127 0.9162,-4.1177 0.3132,-2.205 0.3385,-4.1931 0.0253,-1.9881 -0.3391,-4.242 -0.3644,-2.2539 -1.0351,-4.9428 -0.6707,-2.6889 -1.9401,-5.7744 -1.2694,-3.0855 -2.6184,-5.7618 -1.349,-2.6763 -2.9715,-4.9606 -1.6225,-2.2843 -3.196,-4.1433 Q 16.3448,12.2246 14.715,10.4511 13.0852,8.6776 11.134,6.868 9.1828,5.0584 6.6701,3.1833 4.1574,1.3082 1.2633,-0.2885 q -2.8941,-1.5967 -5.7045,-2.8589 -2.8104,-1.2622 -5.057,-2.1176 -2.2466,-0.8554 -4.65,-1.3684 -2.4034,-0.513 -5.0854,-0.6658 -2.682,-0.1528 -5.161,-0.0471 -2.479,0.1057 -4.7946,0.4933 -2.3156,0.3876 -4.6889,1.0198 -2.3733,0.6322 -4.6375,1.6283 -2.2642,0.9961 -4.7764,2.3953 -2.5122,1.3992 -4.6763,3.3467 -2.1641,1.9475 -4.0507,4.2422 -1.8866,2.2947 -3.7068,5.322 -1.8202,3.0273 -3.6089,6.3656 -1.7887,3.3383 -3.1661,6.3744 -1.3774,3.0361 -2.3097,6.0511 -0.9323,3.015 -1.426,5.8911 -0.4937,2.8761 -0.5072,5.2589 -0.0135,2.3828 0.3975,4.9847 0.411,2.6019 1.5345,5.2898 1.1235,2.6879 2.1486,4.5451 1.0251,1.8572 2.6181,3.9699 1.593,2.1127 3.2671,4.1346 1.6741,2.0219 3.5856,4.1248 1.9115,2.1029 3.854,3.7925 1.9425,1.6896 3.9054,3.0703 1.9629,1.3807 4.1803,2.6604 2.2174,1.2797 5.3323,2.4466 3.1149,1.1669 6.2683,2.2362 3.1534,1.0693 6.1059,1.9445 2.9525,0.8752 5.7971,1.3791 2.8446,0.5039 5.784,0.6944 2.9394,0.1905 5.586,-0.0452 2.6466,-0.2357 5.0387,-0.8476 2.3921,-0.6119 4.7812,-1.5416 2.3891,-0.9297 4.7954,-2.0524 2.4063,-1.1227 4.3659,-2.3593 1.9596,-1.2366 3.3885,-2.5435 1.4289,-1.3069 2.6099,-2.967 1.181,-1.6601 2.0771,-3.9153 0.8961,-2.2552 1.3203,-4.2478 0.4242,-1.9926 0.7038,-4.2766 0.2796,-2.284 0.2321,-5.089 -0.0475,-2.805 -0.3996,-6.1034 -0.3521,-3.2984 -0.9931,-6.8699 -0.641,-3.5715 -1.1619,-5.505 Q 19.8584,36.0182 19.2689,34.0449 18.6794,32.0716 17.9208,29.9421 17.1622,27.8126 16.3797,25.7648 15.5972,23.717 14.7787,21.9144 13.9602,20.1118 11.9882,17.0368 10.0162,13.9618 7.838,11.5819 5.6598,9.202 3.2814,7.2793 0.903,5.3566 -0.6414,4.3878 -2.1858,3.419 -2.1861,3.4186 a 4.0578146,4.0578146 0 0 1 4.3722,-6.8372 z"
         stroke-linecap="round"
         fill="#1d1d1d"
         id="path4" />
    </g>
  </g>
</svg>
